<?xml version="1.0" encoding="UTF-8"?>
<svg width="160px" height="46px" viewBox="0 0 160 46" version="1.1" xmlns="http://www.w3.org/2000/svg" xmlns:xlink="http://www.w3.org/1999/xlink">
    <!-- Generator: Sketch 64 (93537) - https://sketch.com -->
    <title>content/logo/white</title>
    <desc>Created with Sketch.</desc>
    <g id="1.1-Main-page-UI" stroke="none" stroke-width="1" fill="none" fill-rule="evenodd">
        <g id="Artboard" transform="translate(-263.000000, -75.000000)">
            <g id="content/logo/white" transform="translate(263.000000, 75.000000)">
                <path d="M9.21655945,46 C11.160944,46 12.8407445,45.7356057 14.2559611,45.206817 C15.6711777,44.6780284 16.747973,43.9340351 17.4863468,42.9748371 C18.2247207,42.0156391 18.5939076,40.9211696 18.5939076,39.6914286 C18.5939076,38.2403342 18.2124145,37.1089724 17.4494281,36.2973434 C16.6864418,35.4857143 15.7880869,34.9261821 14.7543635,34.6187469 C13.7206401,34.3113116 12.3915671,34.0223225 10.7671446,33.7517794 C9.3150093,33.5304261 8.25667341,33.2967753 7.59213693,33.0508271 C6.92760044,32.8048789 6.5953322,32.3744695 6.5953322,31.759599 C6.5953322,31.2185129 6.90298798,30.7758062 7.51829954,30.4314787 C8.1336111,30.0871512 9.05657844,29.9149875 10.2872016,29.9149875 C12.3546484,29.9149875 14.2621143,30.4068839 16.0095991,31.3906767 L16.0095991,31.3906767 L17.9293712,27.2956391 C17.0187101,26.754553 15.8680774,26.3302924 14.4774733,26.0228571 C13.0868692,25.7154219 11.6901119,25.5617043 10.2872016,25.5617043 C8.39204196,25.5617043 6.74916009,25.8322473 5.35855596,26.3733333 C3.96795183,26.9144194 2.90961594,27.6707101 2.1835483,28.6422055 C1.45748066,29.6137009 1.09444683,30.7266165 1.09444683,31.9809524 C1.09444683,33.4812364 1.48209312,34.637193 2.25738569,35.4488221 C3.03267825,36.2604511 3.94949248,36.826132 5.00782837,37.1458647 C6.06616425,37.4655973 7.40754346,37.7484378 9.03196598,37.994386 C10.4102639,38.1665497 11.4316811,38.3756057 12.0962176,38.6215539 C12.760754,38.8675021 13.0930223,39.2733166 13.0930223,39.8389975 C13.0930223,41.0441437 11.8747054,41.6467168 9.43807161,41.6467168 C8.23206095,41.6467168 7.00143783,41.4684043 5.74620224,41.1117794 C4.49096666,40.7551546 3.42032454,40.2940017 2.53427589,39.7283208 L2.53427589,39.7283208 L0.614503817,43.8602506 C1.54977739,44.4751211 2.80501298,44.9854637 4.38021057,45.3912782 C5.95540817,45.7970927 7.56752446,46 9.21655945,46 Z M30.2602149,46 C31.170876,46 32.0384653,45.895472 32.8629828,45.686416 C33.6875003,45.4773601 34.3828023,45.1637761 34.948889,44.7456642 L34.948889,44.7456642 L33.3983038,40.6875188 C32.7583798,41.1794152 31.9830872,41.4253634 31.0724261,41.4253634 C30.2848273,41.4253634 29.6756689,41.1978613 29.2449508,40.7428571 C28.8142327,40.287853 28.5988736,39.6422389 28.5988736,38.806015 L28.5988736,38.806015 L28.5988736,30.7266165 L33.5459786,30.7266165 L33.5459786,26.2995489 L28.5988736,26.2995489 L28.5988736,21.4666667 L22.8395574,21.4666667 L22.8395574,26.2995489 L19.7753058,26.2995489 L19.7753058,30.7266165 L22.8395574,30.7266165 L22.8395574,38.8797995 C22.8395574,41.2163074 23.4856346,42.9871345 24.7777888,44.1922807 C26.0699431,45.3974269 27.8974185,46 30.2602149,46 Z M43.9570502,45.7048622 L43.9570502,36.3342356 C43.9570502,34.4896241 44.424687,33.1061654 45.3599606,32.1838596 C46.2952342,31.2615539 47.5873884,30.800401 49.2364234,30.800401 C49.4579356,30.800401 49.8886537,30.8249958 50.5285777,30.8741855 L50.5285777,30.8741855 L50.5285777,25.5617043 C49.002605,25.5617043 47.6550727,25.8076525 46.4859807,26.2995489 C45.3168888,26.7914453 44.3877683,27.5169925 43.6986194,28.4761905 L43.6986194,28.4761905 L43.6986194,25.8568421 L38.197734,25.8568421 L38.197734,45.7048622 L43.9570502,45.7048622 Z M63.5608766,46 C65.6529359,46 67.523483,45.5634419 69.172518,44.6903258 C70.821553,43.8172097 72.1137073,42.6059148 73.0489809,41.0564411 C73.9842544,39.5069674 74.4518912,37.7484378 74.4518912,35.7808521 C74.4518912,33.8132665 73.9842544,32.0547368 73.0489809,30.5052632 C72.1137073,28.9557895 70.821553,27.7444946 69.172518,26.8713784 C67.523483,25.9982623 65.6529359,25.5617043 63.5608766,25.5617043 C61.4688173,25.5617043 59.592117,25.9982623 57.9307758,26.8713784 C56.2694346,27.7444946 54.9711272,28.9557895 54.0358536,30.5052632 C53.10058,32.0547368 52.6329432,33.8132665 52.6329432,35.7808521 C52.6329432,37.7484378 53.10058,39.5069674 54.0358536,41.0564411 C54.9711272,42.6059148 56.2694346,43.8172097 57.9307758,44.6903258 C59.592117,45.5634419 61.4688173,46 63.5608766,46 Z M63.5608766,41.2777945 C62.0841288,41.2777945 60.8658119,40.7797494 59.9059259,39.7836591 C58.9460399,38.7875689 58.4660968,37.4532999 58.4660968,35.7808521 C58.4660968,34.1084043 58.9460399,32.7741353 59.9059259,31.7780451 C60.8658119,30.7819549 62.0841288,30.2839098 63.5608766,30.2839098 C65.0376243,30.2839098 66.2497881,30.7819549 67.1973679,31.7780451 C68.1449477,32.7741353 68.6187376,34.1084043 68.6187376,35.7808521 C68.6187376,37.4532999 68.1449477,38.7875689 67.1973679,39.7836591 C66.2497881,40.7797494 65.0376243,41.2777945 63.5608766,41.2777945 Z M84.0507516,45.7048622 L84.0507516,35.7439599 C84.0507516,34.0223225 84.444551,32.7249457 85.2321498,31.8518296 C86.0197486,30.9787135 87.0780845,30.5421554 88.4071574,30.5421554 C90.9176286,30.5421554 92.1728642,32.1039265 92.1728642,35.2274687 L92.1728642,35.2274687 L92.1728642,45.7048622 L97.9321804,45.7048622 L97.9321804,35.7439599 C97.9321804,34.0223225 98.3259798,32.7249457 99.1135786,31.8518296 C99.9011774,30.9787135 100.97182,30.5421554 102.325505,30.5421554 C103.531516,30.5421554 104.460636,30.9295238 105.112866,31.7042607 C105.765097,32.4789975 106.091212,33.6534002 106.091212,35.2274687 L106.091212,35.2274687 L106.091212,45.7048622 L111.850528,45.7048622 L111.850528,34.3420551 C111.850528,31.4152715 111.118307,29.2201838 109.653866,27.756792 C108.189424,26.2934002 106.214274,25.5617043 103.728415,25.5617043 C102.251668,25.5617043 100.891829,25.8445447 99.6488997,26.4102256 C98.4059703,26.9759064 97.3784,27.7752381 96.5661887,28.8082206 C95.8770398,27.7506433 94.9663787,26.9451629 93.8342054,26.3917794 C92.7020321,25.838396 91.4344903,25.5617043 90.03158,25.5617043 C88.7517319,25.5617043 87.5764868,25.7830576 86.5058447,26.2257644 C85.4352026,26.6684712 84.5306946,27.3079365 83.7923207,28.1441604 L83.7923207,28.1441604 L83.7923207,25.8568421 L78.2914354,25.8568421 L78.2914354,45.7048622 L84.0507516,45.7048622 Z M126.876436,46 C130.469856,46 133.201839,44.9301253 135.072386,42.7903759 L135.072386,42.7903759 L132.008135,39.4700752 C131.318986,40.1341353 130.574459,40.619883 129.774554,40.9273183 C128.974649,41.2347536 128.057834,41.3884712 127.024111,41.3884712 C125.522751,41.3884712 124.267515,41.0318463 123.258404,40.3185965 C122.249293,39.6053467 121.609369,38.6338513 121.338632,37.4041103 L121.338632,37.4041103 L136.364541,37.4041103 C136.438378,36.4449123 136.475297,35.9284211 136.475297,35.8546366 C136.475297,33.7886717 136.026119,31.9748037 135.127764,30.4130326 C134.229409,28.8512615 132.992633,27.652264 131.417436,26.8160401 C129.842238,25.9798162 128.082447,25.5617043 126.138062,25.5617043 C124.144453,25.5617043 122.34159,25.9982623 120.729474,26.8713784 C119.117357,27.7444946 117.849816,28.9619382 116.926848,30.5237093 C116.003881,32.0854804 115.542397,33.8378613 115.542397,35.7808521 C115.542397,37.7484378 116.010034,39.5069674 116.945308,41.0564411 C117.880581,42.6059148 119.209654,43.8172097 120.932527,44.6903258 C122.655399,45.5634419 124.636702,46 126.876436,46 Z M131.048249,34.0469173 L121.264795,34.0469173 C121.461695,32.7679866 122.003169,31.759599 122.889217,31.0217544 C123.775266,30.2839098 124.870521,29.9149875 126.174981,29.9149875 C127.454829,29.9149875 128.537777,30.2900585 129.423826,31.0402005 C130.309875,31.7903425 130.851349,32.7925815 131.048249,34.0469173 L131.048249,34.0469173 Z M150.172132,46 C153.765552,46 156.497535,44.9301253 158.368082,42.7903759 L158.368082,42.7903759 L155.30383,39.4700752 C154.614681,40.1341353 153.870154,40.619883 153.070249,40.9273183 C152.270344,41.2347536 151.35353,41.3884712 150.319807,41.3884712 C148.818447,41.3884712 147.563211,41.0318463 146.5541,40.3185965 C145.544989,39.6053467 144.905065,38.6338513 144.634328,37.4041103 L144.634328,37.4041103 L159.660236,37.4041103 C159.734074,36.4449123 159.770992,35.9284211 159.770992,35.8546366 C159.770992,33.7886717 159.321815,31.9748037 158.42346,30.4130326 C157.525105,28.8512615 156.288329,27.652264 154.713131,26.8160401 C153.137934,25.9798162 151.378143,25.5617043 149.433758,25.5617043 C147.440149,25.5617043 145.637286,25.9982623 144.02517,26.8713784 C142.413053,27.7444946 141.145511,28.9619382 140.222544,30.5237093 C139.299577,32.0854804 138.838093,33.8378613 138.838093,35.7808521 C138.838093,37.7484378 139.30573,39.5069674 140.241003,41.0564411 C141.176277,42.6059148 142.50535,43.8172097 144.228222,44.6903258 C145.951095,45.5634419 147.932398,46 150.172132,46 Z M154.343944,34.0469173 L144.560491,34.0469173 C144.75739,32.7679866 145.298864,31.759599 146.184913,31.0217544 C147.070962,30.2839098 148.166216,29.9149875 149.470677,29.9149875 C150.750525,29.9149875 151.833473,30.2900585 152.719522,31.0402005 C153.605571,31.7903425 154.147045,32.7925815 154.343944,34.0469173 L154.343944,34.0469173 Z" id="stromee" fill="#4646EB" fill-rule="nonzero"></path>
                <path d="M59.6068702,1.15108344 L59.6068702,11.5108344 C59.6068702,12.1439303 60.114614,12.6619179 60.7351897,12.6619179 L62.9918288,12.6619179 L62.9918288,20.8921645 C62.9918288,21.4792171 63.7478028,21.6864121 64.0411659,21.1799354 L69.8971442,10.9352927 C70.3371888,10.1640668 69.7955954,9.20866755 68.9267894,9.20866755 L66.3767873,9.20866755 L69.1863029,1.55396265 C69.4683827,0.80575841 68.9267894,0 68.1369657,0 L60.7351897,0 C60.114614,0 59.6068702,0.517987549 59.6068702,1.15108344 Z" id="Path-Copy" fill="#FCE33F"></path>
            </g>
        </g>
    </g>
</svg>